<?xml version="1.0" encoding="iso-8859-1"?>
<!-- Generator: Adobe Illustrator 19.0.0, SVG Export Plug-In . SVG Version: 6.00 Build 0)  -->
<svg version="1.1" id="Capa_1" xmlns="http://www.w3.org/2000/svg" xmlns:xlink="http://www.w3.org/1999/xlink" x="0px" y="0px"
	 viewBox="0 0 512 512" style="enable-background:new 0 0 512 512;" xml:space="preserve">
<path style="fill:#FAE196;" d="M502,236H10v-86.5c0-25.129,20.371-45.5,45.5-45.5h401c25.129,0,45.5,20.371,45.5,45.5V236z"/>
<path style="fill:#F5C86E;" d="M436,502H76c-22.091,0-40-17.909-40-40V236.127h440V462C476,484.091,458.091,502,436,502z"/>
<rect x="190" y="104" style="fill:#FF5A5A;" width="132" height="132"/>
<path d="M456.5,94h-73.903c25.811-18.897,42.608-49.411,42.608-83.778c0-5.522-4.478-10-10-10s-10,4.478-10,10
	c0,36.021-22.853,66.801-54.819,78.614c6.148-9.096,9.741-20.054,9.741-31.835c0-31.43-25.57-57-57-57
	C283.6,0,266.34,9.875,256.063,24.888C245.787,9.875,228.527,0,209,0c-31.43,0-57,25.57-57,57c0,11.812,3.613,22.794,9.789,31.905
	c-32.059-11.765-54.994-42.596-54.994-78.683c0-5.522-4.478-10-10-10s-10,4.478-10,10c0,34.368,16.797,64.881,42.608,83.778H55.5
	C24.897,94,0,118.897,0,149.5V236c0,5.522,4.478,10,10,10h16v216c0,27.57,22.43,50,50,50h360c27.57,0,50-22.43,50-50V316
	c0-5.522-4.478-10-10-10s-10,4.478-10,10v146c0,16.542-13.458,30-30,30H76c-16.542,0-30-13.458-30-30V246.127L502,246
	c5.522,0,10-4.478,10-10v-86.5C512,118.897,487.103,94,456.5,94z M200,226V114h112v112H200z M266.127,57c0-20.402,16.598-37,37-37
	s37,16.598,37,37s-16.598,37-37,37h-37V57z M209,20c20.402,0,37,16.598,37,37v37h-37c-20.402,0-37-16.598-37-37S188.598,20,209,20z
	 M20,149.5c0-19.575,15.925-35.5,35.5-35.5H180v112H20V149.5z M492,226H332V114h124.5c19.575,0,35.5,15.925,35.5,35.5V226z"/>
<path d="M476,262.05c-2.63,0-5.21,1.06-7.07,2.92c-1.86,1.87-2.93,4.45-2.93,7.08s1.069,5.2,2.93,7.07
	c1.86,1.859,4.44,2.93,7.07,2.93s5.21-1.07,7.069-2.93c1.86-1.87,2.931-4.44,2.931-7.07s-1.07-5.21-2.931-7.08
	C481.21,263.109,478.63,262.05,476,262.05z"/>
<g>
</g>
<g>
</g>
<g>
</g>
<g>
</g>
<g>
</g>
<g>
</g>
<g>
</g>
<g>
</g>
<g>
</g>
<g>
</g>
<g>
</g>
<g>
</g>
<g>
</g>
<g>
</g>
<g>
</g>
</svg>
