<?xml version="1.0" encoding="utf-8"?>
<!-- Generator: Adobe Illustrator 21.1.0, SVG Export Plug-In . SVG Version: 6.00 Build 0)  -->
<svg version="1.1" id="Слой_1" xmlns="http://www.w3.org/2000/svg" xmlns:xlink="http://www.w3.org/1999/xlink" x="0px" y="0px"
	 viewBox="0 0 154.9 46.1" style="enable-background:new 0 0 154.9 46.1;" xml:space="preserve">
<style type="text/css">
	.st0{fill:url(#SVGID_1_);}
	.st1{fill:url(#SVGID_2_);}
	.st2{fill:url(#SVGID_3_);}
	.st3{fill:url(#SVGID_4_);}
	.st4{fill:#F40606;}
	.st5{fill:#39454C;}
</style>
<g>
	<g>
		<linearGradient id="SVGID_1_" gradientUnits="userSpaceOnUse" x1="42.7939" y1="29.0003" x2="36.7499" y2="46.7153">
			<stop  offset="0" style="stop-color:#FCC800"/>
			<stop  offset="1" style="stop-color:#FCA900"/>
		</linearGradient>
		<ellipse class="st0" cx="40" cy="37.1" rx="8.5" ry="8.5"/>
		<linearGradient id="SVGID_2_" gradientUnits="userSpaceOnUse" x1="6.4245" y1="44.4822" x2="37.4112" y2="-16.5475">
			<stop  offset="0" style="stop-color:#FFAE22"/>
			<stop  offset="2.959504e-02" style="stop-color:#FFA623"/>
			<stop  offset="0.1639" style="stop-color:#FF8526"/>
			<stop  offset="0.2373" style="stop-color:#FF7827"/>
			<stop  offset="0.3771" style="stop-color:#FF6E2F"/>
			<stop  offset="0.6148" style="stop-color:#FF5346"/>
			<stop  offset="0.9199" style="stop-color:#FF286A"/>
			<stop  offset="1" style="stop-color:#FF1B75"/>
		</linearGradient>
		<path class="st1" d="M34.1,11.1c0-5.2-4.2-9.4-9.4-9.4c-5.2,0-9.4,4.2-9.4,9.4c0,0.8,0.1,1.6,0.3,2.3c1.3,5.2,1.1,8.7-7,10.3l0,0
			C3.7,24.9,0,29.4,0,34.7C0,41,5.1,46.1,11.4,46.1S22.8,41,22.8,34.7c0-1.4-0.2-2.7-0.7-4l0,0c0,0,0,0,0,0
			c-2.8-6.5-0.2-9.4,4.6-10.6C31.3,19,34.1,15.6,34.1,11.1z"/>
		
			<radialGradient id="SVGID_3_" cx="113.0476" cy="26.8546" r="6.653" gradientTransform="matrix(0.8199 0.7453 -0.7202 0.7868 -43.8601 -98.3875)" gradientUnits="userSpaceOnUse">
			<stop  offset="0" style="stop-color:#FFFFFF;stop-opacity:0.3"/>
			<stop  offset="1" style="stop-color:#FFFFFF;stop-opacity:0"/>
		</radialGradient>
		<path class="st2" d="M32,16.1c-3.1,3.3-8.4,3.4-12,0.1s-4-8.6-0.9-11.9s8.4-3.4,12-0.1S35.1,12.8,32,16.1z"/>
		<linearGradient id="SVGID_4_" gradientUnits="userSpaceOnUse" x1="12.8329" y1="32.1289" x2="23.506" y2="13.5309">
			<stop  offset="0" style="stop-color:#FF5122;stop-opacity:0"/>
			<stop  offset="9.799711e-02" style="stop-color:#E4491E;stop-opacity:4.887187e-02"/>
			<stop  offset="0.2041" style="stop-color:#CE421B;stop-opacity:0.1018"/>
			<stop  offset="0.3067" style="stop-color:#C13E19;stop-opacity:0.1529"/>
			<stop  offset="0.401" style="stop-color:#BD3D18;stop-opacity:0.2"/>
			<stop  offset="0.5322" style="stop-color:#C43F19;stop-opacity:0.1562"/>
			<stop  offset="0.7213" style="stop-color:#D7451C;stop-opacity:9.305575e-02"/>
			<stop  offset="0.9445" style="stop-color:#F64E21;stop-opacity:1.853195e-02"/>
			<stop  offset="1" style="stop-color:#FF5122;stop-opacity:0"/>
		</linearGradient>
		<path class="st3" d="M26.6,20.2c1.7-0.4,3.2-1.2,4.3-2.1c-4.3-2.8-11.3-7.4-15.2-10c-0.3,1-0.5,2-0.5,3c0,0.8,0.1,1.6,0.3,2.3
			c1.3,5.2,1.1,8.7-7,10.3l0,0c-2.1,0.5-4,1.7-5.5,3.2l19.4,10.4c0.2-0.8,0.3-1.7,0.3-2.6c0-1.4-0.2-2.7-0.7-4l0,0c0,0,0,0,0,0
			C19.3,24.3,21.9,21.4,26.6,20.2z"/>
	</g>
	<g>
		<path class="st4" d="M69.3,0.9h5.2l11,25.9h-5.9L77.2,21H66.4L64,26.8h-5.8L69.3,0.9z M75.2,16l-3.4-8.3L68.4,16H75.2z"/>
		<path class="st4" d="M88,30.7l1.9-4.2c2,1.1,4,1.8,6.6,1.8c3.8,0,5.6-1.8,5.6-5.4v-1c-1.7,2-3.4,3.2-6.4,3.2
			c-4.6,0-8.7-3.3-8.7-9.2c0-5.9,4.2-9.2,8.7-9.2c3,0,4.8,1.3,6.3,2.9V7.1h5.6v15.2c0,3.5-0.8,6.1-2.5,7.7c-1.8,1.8-4.7,2.6-8.5,2.6
			C93.5,32.7,90.5,32,88,30.7z M102.2,15.9c0-2.7-2.1-4.6-4.8-4.6c-2.7,0-4.8,1.9-4.8,4.6c0,2.7,2.1,4.6,4.8,4.6
			C100.1,20.5,102.2,18.7,102.2,15.9z"/>
		<path class="st4" d="M112.8,0h5.9v5h-5.9V0z M113,7.1h5.6v19.7H113V7.1z"/>
		<path class="st4" d="M124,0h5.6v26.8H124V0z"/>
		<path class="st4" d="M133.9,17c0-5.6,4-10.2,9.7-10.2c6.6,0,9.6,5.1,9.6,10.7c0,0.4,0,1-0.1,1.5h-13.7c0.6,2.5,2.3,3.9,4.8,3.9
			c1.9,0,3.2-0.6,4.8-2l3.2,2.8c-1.8,2.3-4.5,3.7-8,3.7C138.3,27.2,133.9,23.1,133.9,17z M147.8,15.4c-0.3-2.5-1.8-4.2-4.1-4.2
			c-2.3,0-3.8,1.7-4.3,4.2H147.8z"/>
	</g>
	<g>
		<g>
			<path class="st5" d="M58.8,41.6c0-1.4,1.1-2.7,2.6-2.7c1,0,1.6,0.4,2,0.9L63,40.3c-0.4-0.4-0.9-0.7-1.6-0.7c-1,0-1.8,0.9-1.8,2
				c0,1.1,0.8,2,1.9,2c0.6,0,1.1-0.3,1.5-0.8l0.5,0.5c-0.5,0.6-1.1,1-2.1,1C60,44.2,58.8,43,58.8,41.6z"/>
			<path class="st5" d="M66.8,43.6c0.7,0,1.2-0.3,1.6-0.7l0.5,0.4c-0.5,0.6-1.1,1-2.1,1c-1.4,0-2.5-1.1-2.5-2.6c0-1.5,1-2.7,2.4-2.7
				c1.5,0,2.4,1.2,2.4,2.7c0,0.1,0,0.1,0,0.3h-4C65.2,42.9,65.9,43.6,66.8,43.6z M68.3,41.3c-0.1-0.9-0.6-1.7-1.6-1.7
				c-0.9,0-1.5,0.7-1.6,1.7H68.3z"/>
			<path class="st5" d="M70.4,39h0.8v0.9c0.3-0.5,0.9-1,1.7-1c1.2,0,1.9,0.8,1.9,2v3.2h-0.8v-3c0-0.9-0.5-1.5-1.4-1.5
				c-0.9,0-1.5,0.6-1.5,1.6v2.9h-0.8V39z"/>
			<path class="st5" d="M76.7,42.7v-3.1H76V39h0.7v-1.5h0.8V39h1.6v0.7h-1.6v3c0,0.6,0.3,0.8,0.9,0.8c0.3,0,0.5,0,0.7-0.2V44
				c-0.3,0.1-0.5,0.2-0.9,0.2C77.3,44.2,76.7,43.8,76.7,42.7z"/>
			<path class="st5" d="M82.5,43.6c0.7,0,1.2-0.3,1.6-0.7l0.5,0.4c-0.5,0.6-1.1,1-2.1,1c-1.4,0-2.5-1.1-2.5-2.6c0-1.5,1-2.7,2.4-2.7
				c1.5,0,2.4,1.2,2.4,2.7c0,0.1,0,0.1,0,0.3h-4C80.8,42.9,81.6,43.6,82.5,43.6z M84,41.3c-0.1-0.9-0.6-1.7-1.6-1.7
				c-0.9,0-1.5,0.7-1.6,1.7H84z"/>
			<path class="st5" d="M86.1,39h0.8v1.3c0.4-0.8,1.1-1.5,2.1-1.4v0.8h-0.1c-1.1,0-2,0.8-2,2.3v2h-0.8V39z"/>
			<path class="st5" d="M92.7,41.6c0-1.4,1.1-2.7,2.7-2.7c1.5,0,2.6,1.2,2.6,2.7c0,1.4-1.1,2.6-2.7,2.6C93.8,44.2,92.7,43,92.7,41.6
				z M97.2,41.6c0-1.1-0.8-2-1.9-2c-1.1,0-1.9,0.9-1.9,2c0,1.1,0.8,2,1.9,2C96.4,43.5,97.2,42.6,97.2,41.6z"/>
			<path class="st5" d="M99.6,39.7h-0.7V39h0.7v-0.4c0-0.6,0.2-1,0.4-1.3c0.3-0.3,0.6-0.4,1.1-0.4c0.4,0,0.6,0,0.8,0.1v0.7
				c-0.3-0.1-0.5-0.1-0.7-0.1c-0.6,0-0.9,0.4-0.9,1.1V39h1.6v0.6h-1.6v4.4h-0.8V39.7z"/>
			<path class="st5" d="M108.1,43.6c0.7,0,1.2-0.3,1.6-0.7l0.5,0.4c-0.5,0.6-1.1,1-2.1,1c-1.4,0-2.5-1.1-2.5-2.6
				c0-1.5,1-2.7,2.4-2.7c1.5,0,2.4,1.2,2.4,2.7c0,0.1,0,0.1,0,0.3h-4C106.5,42.9,107.2,43.6,108.1,43.6z M109.6,41.3
				c-0.1-0.9-0.6-1.7-1.6-1.7c-0.9,0-1.5,0.7-1.6,1.7H109.6z"/>
			<path class="st5" d="M112.9,41.5L111,39h0.9l1.5,2l1.5-2h0.8l-1.9,2.5l2,2.6h-0.9l-1.6-2.1l-1.6,2.1H111L112.9,41.5z"/>
			<path class="st5" d="M116.4,41.6c0-1.4,1.1-2.7,2.6-2.7c1,0,1.6,0.4,2,0.9l-0.5,0.5c-0.4-0.4-0.9-0.7-1.6-0.7c-1,0-1.8,0.9-1.8,2
				c0,1.1,0.8,2,1.9,2c0.6,0,1.1-0.3,1.5-0.8l0.5,0.5c-0.5,0.6-1.1,1-2.1,1C117.5,44.2,116.4,43,116.4,41.6z"/>
			<path class="st5" d="M124.4,43.6c0.7,0,1.2-0.3,1.6-0.7l0.5,0.4c-0.5,0.6-1.1,1-2.1,1c-1.4,0-2.5-1.1-2.5-2.6
				c0-1.5,1-2.7,2.4-2.7c1.5,0,2.4,1.2,2.4,2.7c0,0.1,0,0.1,0,0.3h-4C122.7,42.9,123.5,43.6,124.4,43.6z M125.9,41.3
				c-0.1-0.9-0.6-1.7-1.6-1.7c-0.9,0-1.5,0.7-1.6,1.7H125.9z"/>
			<path class="st5" d="M128,36.9h0.8v7.2H128V36.9z"/>
			<path class="st5" d="M130.6,36.9h0.8v7.2h-0.8V36.9z"/>
			<path class="st5" d="M135.4,43.6c0.7,0,1.2-0.3,1.6-0.7l0.5,0.4c-0.5,0.6-1.1,1-2.1,1c-1.4,0-2.5-1.1-2.5-2.6
				c0-1.5,1-2.7,2.4-2.7c1.5,0,2.4,1.2,2.4,2.7c0,0.1,0,0.1,0,0.3h-4C133.7,42.9,134.5,43.6,135.4,43.6z M136.9,41.3
				c-0.1-0.9-0.6-1.7-1.6-1.7c-0.9,0-1.5,0.7-1.6,1.7H136.9z"/>
			<path class="st5" d="M138.9,39h0.8v0.9c0.3-0.5,0.9-1,1.7-1c1.2,0,1.9,0.8,1.9,2v3.2h-0.8v-3c0-0.9-0.5-1.5-1.4-1.5
				c-0.9,0-1.5,0.6-1.5,1.6v2.9h-0.8V39z"/>
			<path class="st5" d="M144.7,41.6c0-1.4,1.1-2.7,2.6-2.7c1,0,1.6,0.4,2,0.9l-0.5,0.5c-0.4-0.4-0.9-0.7-1.6-0.7c-1,0-1.8,0.9-1.8,2
				c0,1.1,0.8,2,1.9,2c0.6,0,1.1-0.3,1.5-0.8l0.5,0.5c-0.5,0.6-1.1,1-2.1,1C145.8,44.2,144.7,43,144.7,41.6z"/>
			<path class="st5" d="M152.7,43.6c0.7,0,1.2-0.3,1.6-0.7l0.5,0.4c-0.5,0.6-1.1,1-2.1,1c-1.4,0-2.5-1.1-2.5-2.6
				c0-1.5,1-2.7,2.4-2.7c1.5,0,2.4,1.2,2.4,2.7c0,0.1,0,0.1,0,0.3h-4C151,42.9,151.8,43.6,152.7,43.6z M154.2,41.3
				c-0.1-0.9-0.6-1.7-1.6-1.7c-0.9,0-1.5,0.7-1.6,1.7H154.2z"/>
		</g>
	</g>
</g>
</svg>
