<svg id="Слой_1" data-name="Слой 1" xmlns="http://www.w3.org/2000/svg" xmlns:xlink="http://www.w3.org/1999/xlink" viewBox="0 0 154.12 46.26"><defs><style>.cls-1{fill:url(#Безымянный_градиент_271);}.cls-2{fill:url(#Безымянный_градиент_246);}.cls-3{fill:url(#Безымянный_градиент_214);}.cls-4{fill:url(#Безымянный_градиент_172);}.cls-5{fill:#f40606;}.cls-6{fill:#39454c;}</style><linearGradient id="Безымянный_градиент_271" x1="42.79" y1="27.37" x2="36.75" y2="45.09" gradientUnits="userSpaceOnUse"><stop offset="0" stop-color="#fcc800"/><stop offset="1" stop-color="#fca900"/></linearGradient><linearGradient id="Безымянный_градиент_246" x1="6.42" y1="42.86" x2="37.41" y2="-18.17" gradientUnits="userSpaceOnUse"><stop offset="0" stop-color="#ffae22"/><stop offset="0.03" stop-color="#ffa623"/><stop offset="0.16" stop-color="#ff8526"/><stop offset="0.24" stop-color="#ff7827"/><stop offset="0.38" stop-color="#ff6e2f"/><stop offset="0.61" stop-color="#ff5346"/><stop offset="0.92" stop-color="#ff286a"/><stop offset="1" stop-color="#ff1b75"/></linearGradient><radialGradient id="Безымянный_градиент_214" cx="63.85" cy="75.76" r="6.65" gradientTransform="matrix(0.01, 1.11, -1.07, 0, 111.01, -61.63)" gradientUnits="userSpaceOnUse"><stop offset="0" stop-color="#fff" stop-opacity="0.3"/><stop offset="1" stop-color="#fff" stop-opacity="0"/></radialGradient><linearGradient id="Безымянный_градиент_172" x1="12.83" y1="30.5" x2="23.51" y2="11.91" gradientUnits="userSpaceOnUse"><stop offset="0" stop-color="#ff5122" stop-opacity="0"/><stop offset="0.14" stop-color="#db461d" stop-opacity="0.11"/><stop offset="0.27" stop-color="#c53f19" stop-opacity="0.18"/><stop offset="0.4" stop-color="#bd3d18" stop-opacity="0.2"/><stop offset="0.59" stop-color="#c9411a" stop-opacity="0.16"/><stop offset="0.87" stop-color="#ea4b1f" stop-opacity="0.06"/><stop offset="1" stop-color="#ff5122" stop-opacity="0"/></linearGradient></defs><title>logo_rus-1</title><ellipse class="cls-1" cx="40.02" cy="35.51" rx="8.48" ry="8.53"/><path class="cls-2" d="M34.13,9.43a9.44,9.44,0,0,0-18.87,0,9.33,9.33,0,0,0,.29,2.32c1.32,5.2,1.07,8.69-7,10.29h0a11.38,11.38,0,1,0,14.17,11,11.25,11.25,0,0,0-.71-4h0v0c-2.79-6.53-.2-9.41,4.59-10.61C31.26,17.34,34.13,13.94,34.13,9.43Z"/><ellipse class="cls-3" cx="25.59" cy="8.55" rx="8.19" ry="8.75" transform="translate(1.98 21.61) rotate(-47.43)"/><path class="cls-4" d="M26.64,18.59A10.72,10.72,0,0,0,31,16.45c-4.3-2.8-11.32-7.4-15.22-9.95a9.48,9.48,0,0,0-.5,3,9.25,9.25,0,0,0,.29,2.31c1.32,5.21,1.07,8.7-7,10.3h0a11.31,11.31,0,0,0-5.5,3.23L22.46,35.81a11.33,11.33,0,0,0-.4-6.58h0v0C19.26,22.67,21.85,19.8,26.64,18.59Z"/><path class="cls-5" d="M69.25,1.63h5.21l11,25.86H79.56l-2.35-5.76H66.35L64,27.49H58.24Zm6,15.11L71.78,8.41l-3.41,8.33Z"/><path class="cls-5" d="M88,31.38,90,27.2A12.77,12.77,0,0,0,96.59,29c3.81,0,5.61-1.84,5.61-5.36v-.95a7.69,7.69,0,0,1-6.42,3.19c-4.59,0-8.73-3.34-8.73-9.25s4.22-9.17,8.73-9.17a8,8,0,0,1,6.35,2.94V7.83h5.58V23.05c0,3.53-.85,6.1-2.5,7.75-1.83,1.83-4.66,2.64-8.48,2.64A18.52,18.52,0,0,1,88,31.38ZM102.2,16.63a4.79,4.79,0,0,0-9.57.08,4.49,4.49,0,0,0,4.77,4.55A4.56,4.56,0,0,0,102.2,16.63Z"/><path class="cls-5" d="M112.81.71h5.87v5h-5.87ZM113,7.83h5.58V27.49H113Z"/><path class="cls-5" d="M124,.71h5.58V27.49H124Z"/><path class="cls-5" d="M133.9,17.7c0-5.62,4-10.24,9.73-10.24,6.57,0,9.58,5.1,9.58,10.68,0,.44,0,.95-.08,1.47H139.45a4.56,4.56,0,0,0,4.8,3.85,6.45,6.45,0,0,0,4.77-2l3.2,2.83A10.39,10.39,0,0,1,133.9,17.7Zm13.88-1.58c-.33-2.5-1.8-4.18-4.15-4.18s-3.82,1.65-4.26,4.18Z"/><path class="cls-6" d="M63.27,44.57h-4.7V39.13h.81v4.73h3V39.13h.82v4.73h.82l-.13,2.07h-.67Z"/><path class="cls-6" d="M64.85,41.86A2.68,2.68,0,0,1,67.46,39,2.59,2.59,0,0,1,70,41.9c0,.07,0,.16,0,.28H65.67A1.9,1.9,0,0,0,67.58,44a2.27,2.27,0,0,0,1.72-.77l.5.45a2.8,2.8,0,0,1-2.24,1A2.71,2.71,0,0,1,64.85,41.86Zm4.32-.33a1.78,1.78,0,0,0-1.73-1.83,1.87,1.87,0,0,0-1.77,1.83Z"/><path class="cls-6" d="M71.42,39.13h.81v2.35h3.13V39.13h.81v5.44h-.81V42.2H72.23v2.37h-.81Z"/><path class="cls-6" d="M79.3,39.85h-2v-.72h4.72v.72H80.12v4.72H79.3Z"/><path class="cls-6" d="M83.25,39.13h.81v1.1A2.44,2.44,0,0,1,86.15,39a2.85,2.85,0,0,1,0,5.67,2.47,2.47,0,0,1-2.09-1.16v2.73h-.81Zm4.66,2.72A2,2,0,0,0,86,39.74,2.11,2.11,0,0,0,86,44,1.92,1.92,0,0,0,87.91,41.85Z"/><path class="cls-6" d="M92.92,43.65l.53-.51A2.18,2.18,0,0,0,95.1,44a2,2,0,0,0,2-1.83H94.61v-.68h2.48a2,2,0,0,0-2-1.77,2.22,2.22,0,0,0-1.69.81L93,40a2.82,2.82,0,0,1,5,1.87,2.8,2.8,0,0,1-2.79,2.82A2.67,2.67,0,0,1,92.92,43.65Z"/><path class="cls-6" d="M99.41,39.13h.81v3.14l3-3.14h1l-2.27,2.36,2.34,3.08h-1l-1.94-2.49-1.15,1.18v1.31h-.81Z"/><path class="cls-6" d="M104.73,41.86A2.8,2.8,0,0,1,107.52,39a2.84,2.84,0,0,1,2.18,1l-.52.55a2.22,2.22,0,0,0-1.67-.8,2.13,2.13,0,0,0,0,4.24,2.17,2.17,0,0,0,1.64-.82l.54.5a2.82,2.82,0,0,1-5-1.79Z"/><path class="cls-6" d="M111.08,39.13h4.71v5.44H115V39.85h-3.09v4.72h-.81Z"/><path class="cls-6" d="M117.27,41.86A2.68,2.68,0,0,1,119.88,39a2.59,2.59,0,0,1,2.54,2.88c0,.07,0,.16,0,.28h-4.32A1.91,1.91,0,0,0,120,44a2.26,2.26,0,0,0,1.71-.77l.51.45a2.81,2.81,0,0,1-2.24,1A2.71,2.71,0,0,1,117.27,41.86Zm4.33-.33a1.79,1.79,0,0,0-1.74-1.83,1.88,1.88,0,0,0-1.77,1.83Z"/><path class="cls-6" d="M123.84,39.13h.81v1.1A2.42,2.42,0,0,1,126.73,39a2.85,2.85,0,0,1,0,5.67,2.45,2.45,0,0,1-2.08-1.16v2.73h-.81Zm4.66,2.72a2,2,0,0,0-1.91-2.11,2.11,2.11,0,0,0,0,4.22A1.92,1.92,0,0,0,128.5,41.85Z"/><path class="cls-6" d="M131.94,39.85H130v-.72h4.71v.72h-1.94v4.72h-.82Z"/><path class="cls-6" d="M135.88,39.13h.81v4.31l3.24-4.31h.79v5.44h-.81v-4.3l-3.25,4.3h-.78Z"/><path class="cls-6" d="M142,43.89l.41-.6a2.82,2.82,0,0,0,1.82.71c.71,0,1.35-.34,1.35-1s-.48-.9-1.37-.9h-.72v-.66h.73c.72,0,1.21-.37,1.21-.94s-.5-.81-1.18-.81a2.75,2.75,0,0,0-1.65.55l-.4-.57a3.44,3.44,0,0,1,2.11-.68c1.22,0,2,.61,2,1.45a1.3,1.3,0,0,1-.88,1.25,1.34,1.34,0,0,1,1,1.34c0,.87-.81,1.64-2.16,1.64A3.42,3.42,0,0,1,142,43.89Z"/><path class="cls-6" d="M147.92,39.13h.81v2h1.45c1.18,0,2.15.49,2.15,1.64s-.81,1.76-2.05,1.76h-2.36Zm2.28,4.73c.81,0,1.31-.35,1.31-1s-.51-1-1.34-1h-1.44v2Zm3.11-4.73h.81v5.44h-.81Z"/></svg>