<?xml version="1.0" encoding="utf-8"?>
<!-- Generator: Adobe Illustrator 21.1.0, SVG Export Plug-In . SVG Version: 6.00 Build 0)  -->
<svg version="1.1" id="Слой_1" xmlns="http://www.w3.org/2000/svg" xmlns:xlink="http://www.w3.org/1999/xlink" x="0px" y="0px"
	 viewBox="0 0 231 111.6" style="enable-background:new 0 0 231 111.6;" xml:space="preserve">
<style type="text/css">
	.st0{fill:#F40606;}
	.st1{fill:url(#SVGID_1_);}
	.st2{fill:url(#SVGID_2_);}
	.st3{fill:#39454C;}
</style>
<g>
	<g>
		<g>
			<path class="st0" d="M70.3,75.6L75,65.3c5,2.8,10,4.4,16.4,4.4c9.4,0,13.8-4.5,13.8-13.2v-2.4c-4.1,4.9-8.5,7.9-15.8,7.9
				c-11.3,0-21.5-8.2-21.5-22.8c0-14.5,10.4-22.6,21.5-22.6c7.5,0,11.9,3.2,15.7,7.2v-6.3h13.8v37.5c0,8.7-2.1,15-6.2,19.1
				c-4.5,4.5-11.5,6.5-20.9,6.5C83.9,80.7,76.5,78.9,70.3,75.6z M105.2,39.3c0-6.6-5.2-11.2-11.9-11.2c-6.7,0-11.8,4.6-11.8,11.4
				c0,6.7,5.1,11.2,11.8,11.2C100.1,50.7,105.2,46.1,105.2,39.3z"/>
			<rect x="131.8" y="24.1" class="st0" width="13.8" height="42"/>
			<path class="st0" d="M159.1,0h13.8v66h-13.8V0z"/>
			<path class="st0" d="M183.4,41.9c0-13.8,9.9-25.2,24-25.2c16.2,0,23.6,12.6,23.6,26.3c0,1.1-0.1,2.4-0.2,3.6h-33.7
				c1.4,6.2,5.7,9.5,11.9,9.5c4.6,0,8-1.4,11.8-5l7.9,7c-4.5,5.6-11,9-19.8,9C194.2,67.1,183.4,56.9,183.4,41.9z M217.6,38
				c-0.8-6.2-4.4-10.3-10.2-10.3c-5.7,0-9.4,4.1-10.5,10.3H217.6z"/>
			<polygon class="st0" points="36.8,2.3 22.3,2.3 49.4,66 64,66 			"/>
		</g>
		<linearGradient id="SVGID_1_" gradientUnits="userSpaceOnUse" x1="13.4228" y1="51.9314" x2="2.7383" y2="64.0542">
			<stop  offset="0" style="stop-color:#1C79FF"/>
			<stop  offset="0.1261" style="stop-color:#1473FD"/>
			<stop  offset="0.3049" style="stop-color:#0063F9"/>
			<stop  offset="0.5295" style="stop-color:#0058EC"/>
			<stop  offset="0.9462" style="stop-color:#0039C9"/>
			<stop  offset="1" style="stop-color:#0035C4"/>
		</linearGradient>
		<circle class="st1" cx="8.3" cy="57.8" r="8.3"/>
		<linearGradient id="SVGID_2_" gradientUnits="userSpaceOnUse" x1="143.6281" y1="2.5626" x2="132.8409" y2="14.8908">
			<stop  offset="0" style="stop-color:#FFDF59"/>
			<stop  offset="5.197126e-02" style="stop-color:#FFDC4D"/>
			<stop  offset="0.1462" style="stop-color:#FED32D"/>
			<stop  offset="0.2554" style="stop-color:#FCC700"/>
			<stop  offset="0.5226" style="stop-color:#F6B400"/>
			<stop  offset="1" style="stop-color:#E88900"/>
		</linearGradient>
		<circle class="st2" cx="138.6" cy="8.3" r="8.3"/>
	</g>
	<g>
		<g>
			<path class="st3" d="M36.6,108.5H28v-10h1.5v8.7h5.6v-8.7h1.5v8.7h1.5l-0.2,3.8h-1.2V108.5z"/>
			<path class="st3" d="M39.5,103.6c0-2.9,2-5.2,4.8-5.2c3,0,4.6,2.4,4.6,5.3c0,0.1,0,0.3,0,0.5H41c0.2,2.1,1.8,3.3,3.5,3.3
				c1.4,0,2.3-0.6,3.1-1.4l0.9,0.8c-1,1.1-2.2,1.9-4.1,1.9C41.7,108.8,39.5,106.7,39.5,103.6z M47.4,103c-0.2-1.8-1.2-3.4-3.2-3.4
				c-1.7,0-3,1.4-3.2,3.4H47.4z"/>
			<path class="st3" d="M51.5,98.6H53v4.3h5.7v-4.3h1.5v10h-1.5v-4.4H53v4.4h-1.5V98.6z"/>
			<path class="st3" d="M66,99.9h-3.6v-1.3H71v1.3h-3.6v8.7H66V99.9z"/>
			<path class="st3" d="M73.2,98.6h1.5v2c0.8-1.2,2-2.2,3.8-2.2c2.4,0,4.8,1.9,4.8,5.2c0,3.3-2.4,5.2-4.8,5.2c-1.9,0-3-1-3.8-2.1v5
				h-1.5V98.6z M81.7,103.5c0-2.4-1.6-3.9-3.5-3.9c-1.9,0-3.6,1.6-3.6,3.9s1.8,3.9,3.6,3.9C80.2,107.4,81.7,106,81.7,103.5z"/>
			<path class="st3" d="M90.9,106.8l1-0.9c0.8,0.9,1.7,1.6,3,1.6c1.9,0,3.5-1.5,3.7-3.3H94v-1.3h4.5c-0.2-1.8-1.7-3.2-3.6-3.2
				c-1.4,0-2.3,0.6-3.1,1.5l-0.9-1c0.9-1,2.1-1.8,4-1.8c2.9,0,5,2.4,5,5.2c0,2.8-2.2,5.2-5.1,5.2C93.1,108.8,91.9,108,90.9,106.8z"
				/>
			<path class="st3" d="M102.8,98.6h1.5v5.7l5.5-5.7h1.8l-4.2,4.3l4.3,5.7h-1.8l-3.5-4.6l-2.1,2.2v2.4h-1.5V98.6z"/>
			<path class="st3" d="M112.5,103.6c0-2.8,2.2-5.2,5.1-5.2c1.9,0,3.1,0.8,4,1.8l-0.9,1c-0.8-0.8-1.7-1.5-3.1-1.5
				c-2,0-3.6,1.7-3.6,3.9c0,2.2,1.6,3.9,3.7,3.9c1.3,0,2.2-0.7,3-1.5l1,0.9c-1,1.1-2.2,1.9-4.1,1.9
				C114.7,108.8,112.5,106.4,112.5,103.6z"/>
			<path class="st3" d="M124.2,98.6h8.6v10h-1.5v-8.7h-5.7v8.7h-1.5V98.6z"/>
			<path class="st3" d="M135.5,103.6c0-2.9,2-5.2,4.8-5.2c3,0,4.6,2.4,4.6,5.3c0,0.1,0,0.3,0,0.5H137c0.2,2.1,1.8,3.3,3.5,3.3
				c1.4,0,2.3-0.6,3.1-1.4l0.9,0.8c-1,1.1-2.2,1.9-4.1,1.9C137.7,108.8,135.5,106.7,135.5,103.6z M143.4,103
				c-0.2-1.8-1.2-3.4-3.2-3.4c-1.7,0-3,1.4-3.2,3.4H143.4z"/>
			<path class="st3" d="M147.5,98.6h1.5v2c0.8-1.2,2-2.2,3.8-2.2c2.4,0,4.8,1.9,4.8,5.2c0,3.3-2.4,5.2-4.8,5.2c-1.9,0-3-1-3.8-2.1v5
				h-1.5V98.6z M156.1,103.5c0-2.4-1.6-3.9-3.5-3.9c-1.9,0-3.6,1.6-3.6,3.9s1.8,3.9,3.6,3.9C154.5,107.4,156.1,106,156.1,103.5z"/>
			<path class="st3" d="M162.4,99.9h-3.6v-1.3h8.6v1.3h-3.6v8.7h-1.5V99.9z"/>
			<path class="st3" d="M169.6,98.6h1.5v7.9l5.9-7.9h1.4v10H177v-7.9l-5.9,7.9h-1.4V98.6z"/>
			<path class="st3" d="M180.8,107.3l0.8-1.1c1,0.8,2.1,1.3,3.3,1.3c1.3,0,2.5-0.6,2.5-1.8c0-1-0.9-1.6-2.5-1.6h-1.3v-1.2h1.3
				c1.3,0,2.2-0.7,2.2-1.7c0-0.9-0.9-1.5-2.2-1.5c-1,0-2.2,0.3-3,1l-0.7-1c1-0.8,2.4-1.3,3.9-1.3c2.2,0,3.6,1.1,3.6,2.7
				c0,1.2-0.8,1.9-1.6,2.3c1.1,0.4,1.9,1.1,1.9,2.4c0,1.6-1.5,3-4,3C183.4,108.8,182,108.3,180.8,107.3z"/>
			<path class="st3" d="M191.6,98.6h1.5v3.7h2.7c2.2,0,3.9,0.9,3.9,3c0,2-1.5,3.2-3.8,3.2h-4.3V98.6z M195.8,107.2
				c1.5,0,2.4-0.6,2.4-1.9c0-1.2-0.9-1.8-2.4-1.8h-2.6v3.6H195.8z M201.5,98.6h1.5v10h-1.5V98.6z"/>
		</g>
	</g>
</g>
</svg>
