<?xml version="1.0" encoding="iso-8859-1"?>
<!-- Generator: Adobe Illustrator 19.0.0, SVG Export Plug-In . SVG Version: 6.00 Build 0)  -->
<svg version="1.1" id="Capa_1" xmlns="http://www.w3.org/2000/svg" xmlns:xlink="http://www.w3.org/1999/xlink" x="0px" y="0px"
	 viewBox="0 0 512 512" style="enable-background:new 0 0 512 512;" xml:space="preserve">
<path style="fill:#FFEFD5;" d="M502,213.988V30c0-11.046-8.954-20-20-20H124c-11.046,0-20,8.954-20,20v452c0,11.046,8.954,20,20,20
	h358c11.046,0,20-8.954,20-20V299.988V213.988z"/>
<path style="fill:#FF5D5D;" d="M448,213.988V30c0-11.046-8.954-20-20-20H70c-11.046,0-20,8.954-20,20v452c0,11.046,8.954,20,20,20
	h358c11.046,0,20-8.954,20-20V299.988V213.988z"/>
<rect x="256" y="64" style="fill:#FFFFFF;" width="132" height="88"/>
<path d="M278,438H162c-5.523,0-10,4.477-10,10s4.477,10,10,10h116c5.523,0,10-4.477,10-10S283.523,438,278,438z"/>
<path d="M162,410h65c5.523,0,10-4.477,10-10s-4.477-10-10-10h-65c-5.523,0-10,4.477-10,10S156.477,410,162,410z"/>
<path d="M278,390c-2.63,0-5.21,1.07-7.07,2.93c-1.86,1.86-2.93,4.44-2.93,7.07s1.07,5.21,2.93,7.07c1.86,1.86,4.44,2.93,7.07,2.93
	s5.21-1.07,7.07-2.93S288,402.63,288,400s-1.07-5.21-2.93-7.07C283.21,391.07,280.63,390,278,390z"/>
<path d="M482,0H70C53.458,0,40,13.458,40,30v24h-6C15.252,54,0,69.252,0,88s15.252,34,34,34c2.254,0,4.327-0.755,6-2.014V166h-6
	c-18.748,0-34,15.252-34,34s15.252,34,34,34c2.254,0,4.327-0.755,6-2.014V278h-6c-18.748,0-34,15.252-34,34s15.252,34,34,34
	c2.254,0,4.327-0.755,6-2.014V390h-6c-18.748,0-34,15.252-34,34s15.252,34,34,34c2.254,0,4.327-0.755,6-2.014V482
	c0,16.542,13.458,30,30,30h412c16.542,0,30-13.458,30-30V30C512,13.458,498.542,0,482,0z M34,102c-7.72,0-14-6.28-14-14
	s6.28-14,14-14h6v30.014C38.327,102.755,36.254,102,34,102z M34,214c-7.72,0-14-6.28-14-14s6.28-14,14-14h6v30.014
	C38.327,214.755,36.254,214,34,214z M34,326c-7.72,0-14-6.28-14-14s6.28-14,14-14h6v30.014C38.327,326.755,36.254,326,34,326z
	 M34,438c-7.72,0-14-6.28-14-14s6.28-14,14-14h6v30.014C38.327,438.755,36.254,438,34,438z M492,482c0,5.514-4.486,10-10,10h-25.72
	c1.11-3.13,1.72-6.494,1.72-10V191.582c0-5.523-4.477-10-10-10s-10,4.477-10,10V482c0,5.514-4.486,10-10,10H70
	c-5.514,0-10-4.486-10-10v-72h23.168c7.72,0,14,6.28,14,14s-6.28,14-14,14h-7c-5.523,0-10,4.477-10,10s4.477,10,10,10h7
	c18.748,0,34-15.252,34-34s-15.252-34-34-34H60v-92h23.168c7.72,0,14,6.28,14,14s-6.28,14-14,14h-7c-5.523,0-10,4.477-10,10
	s4.477,10,10,10h7c18.748,0,34-15.252,34-34s-15.252-34-34-34H60v-92h23.168c7.72,0,14,6.28,14,14s-6.28,14-14,14h-7
	c-5.523,0-10,4.477-10,10s4.477,10,10,10h7c18.748,0,34-15.252,34-34s-15.252-34-34-34H60V74h23.168c7.72,0,14,6.28,14,14
	s-6.28,14-14,14h-7c-5.523,0-10,4.477-10,10s4.477,10,10,10h7c18.748,0,34-15.252,34-34s-15.252-34-34-34H60V30
	c0-5.514,4.486-10,10-10h358c5.514,0,10,4.486,10,10v82c0,5.523,4.477,10,10,10s10-4.477,10-10V30c0-3.506-0.61-6.87-1.72-10H482
	c5.514,0,10,4.486,10,10V482z"/>
<path d="M448,142c-2.63,0-5.21,1.07-7.07,2.93c-1.86,1.86-2.93,4.44-2.93,7.07s1.07,5.21,2.93,7.07S445.37,162,448,162
	s5.21-1.07,7.07-2.93S458,154.63,458,152s-1.07-5.21-2.93-7.07C453.21,143.07,450.63,142,448,142z"/>
<path d="M388,54H256c-5.523,0-10,4.477-10,10v88c0,5.523,4.477,10,10,10h132c5.523,0,10-4.477,10-10V64
	C398,58.477,393.523,54,388,54z M378,142H266V74h112V142z"/>
<g>
</g>
<g>
</g>
<g>
</g>
<g>
</g>
<g>
</g>
<g>
</g>
<g>
</g>
<g>
</g>
<g>
</g>
<g>
</g>
<g>
</g>
<g>
</g>
<g>
</g>
<g>
</g>
<g>
</g>
</svg>
